<?xml version="1.0" encoding="UTF-8" standalone="no" ?>
<!DOCTYPE svg PUBLIC "-//W3C//DTD SVG 1.1//EN" "http://www.w3.org/Graphics/SVG/1.1/DTD/svg11.dtd">
<svg xmlns="http://www.w3.org/2000/svg" xmlns:xlink="http://www.w3.org/1999/xlink" version="1.1" width="1080" height="1080" viewBox="0 0 1080 1080" xml:space="preserve">
<desc>Created with Fabric.js 5.2.4</desc>
<defs>
</defs>
<g transform="matrix(1 0 0 1 540 540)" id="0decea4f-ba8f-4f31-9acb-93fee43d8bf5"  >
<rect style="stroke: none; stroke-width: 1; stroke-dasharray: none; stroke-linecap: butt; stroke-dashoffset: 0; stroke-linejoin: miter; stroke-miterlimit: 4; fill: rgb(255,255,255); fill-rule: nonzero; opacity: 1; visibility: hidden;" vector-effect="non-scaling-stroke"  x="-540" y="-540" rx="0" ry="0" width="1080" height="1080" />
</g>
<g transform="matrix(1 0 0 1 540 540)" id="f7dd2182-cc49-4030-9151-0c32d23a77fc"  >
</g>
<g transform="matrix(1.75 0 0 1.75 540 540)"  >
<g style="" vector-effect="non-scaling-stroke"   >
		<g transform="matrix(1 0 0 1 -159.84 -72.76)" id="XMLID_1327_"  >
<path style="stroke: none; stroke-width: 1; stroke-dasharray: none; stroke-linecap: butt; stroke-dashoffset: 0; stroke-linejoin: miter; stroke-miterlimit: 4; fill: rgb(255,0,0); fill-rule: nonzero; opacity: 1;" vector-effect="non-scaling-stroke"  transform=" translate(-70.16, -157.24)" d="M 81.558 149.757 L 58.766 149.757 C 54.632999999999996 149.757 51.282 153.108 51.282 157.241 C 51.282 161.37400000000002 54.632999999999996 164.72500000000002 58.766 164.72500000000002 L 81.55799999999999 164.72500000000002 C 85.69099999999999 164.72500000000002 89.04199999999999 161.37400000000002 89.04199999999999 157.241 C 89.04199999999999 153.108 85.691 149.757 81.558 149.757 z" stroke-linecap="round" />
</g>
		<g transform="matrix(1 0 0 1 -159.84 51.77)" id="XMLID_1907_"  >
<path style="stroke: none; stroke-width: 1; stroke-dasharray: none; stroke-linecap: butt; stroke-dashoffset: 0; stroke-linejoin: miter; stroke-miterlimit: 4; fill: rgb(255,0,0); fill-rule: nonzero; opacity: 1;" vector-effect="non-scaling-stroke"  transform=" translate(-70.16, -281.77)" d="M 81.558 274.287 L 58.766 274.287 C 54.632999999999996 274.287 51.282 277.638 51.282 281.77099999999996 C 51.282 285.90399999999994 54.632999999999996 289.25499999999994 58.766 289.25499999999994 L 81.55799999999999 289.25499999999994 C 85.69099999999999 289.25499999999994 89.04199999999999 285.90399999999994 89.04199999999999 281.77099999999996 C 89.041 277.638 85.691 274.287 81.558 274.287 z" stroke-linecap="round" />
</g>
		<g transform="matrix(1 0 0 1 -159.84 174.5)" id="XMLID_1908_"  >
<path style="stroke: none; stroke-width: 1; stroke-dasharray: none; stroke-linecap: butt; stroke-dashoffset: 0; stroke-linejoin: miter; stroke-miterlimit: 4; fill: rgb(255,0,0); fill-rule: nonzero; opacity: 1;" vector-effect="non-scaling-stroke"  transform=" translate(-70.16, -404.5)" d="M 81.558 397.013 L 58.766 397.013 C 54.632999999999996 397.013 51.282 400.364 51.282 404.49699999999996 C 51.282 408.62999999999994 54.632999999999996 411.98099999999994 58.766 411.98099999999994 L 81.55799999999999 411.98099999999994 C 85.69099999999999 411.98099999999994 89.04199999999999 408.62999999999994 89.04199999999999 404.49699999999996 C 89.041 400.364 85.691 397.013 81.558 397.013 z" stroke-linecap="round" />
</g>
		<g transform="matrix(1 0 0 1 -23.09 174.5)" id="XMLID_1911_"  >
<path style="stroke: none; stroke-width: 1; stroke-dasharray: none; stroke-linecap: butt; stroke-dashoffset: 0; stroke-linejoin: miter; stroke-miterlimit: 4; fill: rgb(255,0,0); fill-rule: nonzero; opacity: 1;" vector-effect="non-scaling-stroke"  transform=" translate(-206.91, -404.5)" d="M 379.609 351.626 L 34.219 351.626 C 15.35 351.626 0 366.976 0 385.844 L 0 423.15 C 0 442.018 15.35 457.368 34.219 457.368 L 379.61 457.368 C 398.478 457.368 413.829 442.018 413.829 423.15 L 413.829 385.844 C 413.828 366.976 398.478 351.626 379.609 351.626 z M 398.86 423.15 C 398.86 433.765 390.224 442.40099999999995 379.60900000000004 442.40099999999995 L 34.219 442.40099999999995 C 23.604 442.40099999999995 14.968 433.76499999999993 14.968 423.15 L 14.968 385.844 C 14.968 375.229 23.604 366.593 34.219 366.593 L 379.61 366.593 C 390.225 366.593 398.861 375.22900000000004 398.861 385.844 L 398.861 423.15 z" stroke-linecap="round" />
</g>
		<g transform="matrix(1 0 0 1 0 -61.36)" id="XMLID_1914_"  >
<path style="stroke: none; stroke-width: 1; stroke-dasharray: none; stroke-linecap: butt; stroke-dashoffset: 0; stroke-linejoin: miter; stroke-miterlimit: 4; fill: rgb(255,0,0); fill-rule: nonzero; opacity: 1;" vector-effect="non-scaling-stroke"  transform=" translate(-230, -168.64)" d="M 452.516 139.108 L 425.738 139.108 L 425.738 95.77 C 425.738 44.413 383.957 2.631999999999991 332.6 2.631999999999991 C 281.24300000000005 2.631999999999991 239.46200000000002 44.41299999999999 239.46200000000002 95.77 L 239.46200000000002 104.36999999999999 L 34.219 104.36999999999999 C 15.35 104.37 0 119.72 0 138.588 L 0 175.894 C 0 194.762 15.35 210.113 34.219 210.113 L 205.2 210.113 L 205.2 228.9 L 34.219 228.9 C 15.35 228.899 0 244.25 0 263.118 L 0 300.424 C 0 319.292 15.35 334.643 34.219 334.643 L 379.61 334.643 C 398.478 334.643 413.829 319.29299999999995 413.829 300.424 L 413.829 293.407 L 422.646 293.407 C 443.244 293.407 460.00100000000003 276.649 460.00100000000003 256.05199999999996 L 460.00100000000003 146.591 C 460 142.458 456.649 139.108 452.516 139.108 z M 332.6 17.599 C 375.70300000000003 17.599 410.77000000000004 52.666 410.77000000000004 95.769 L 410.77000000000004 139.107 L 388.081 139.107 L 388.081 99.022 C 388.081 68.43 363.192 43.541000000000004 332.6 43.541000000000004 C 302.007 43.541000000000004 277.119 68.43 277.119 99.022 L 277.119 139.108 L 254.43000000000004 139.108 L 254.43000000000004 95.77 C 254.429 52.667 289.497 17.599 332.6 17.599 z M 373.114 139.108 L 292.087 139.108 L 292.087 99.022 C 292.087 76.683 310.26099999999997 58.50900000000001 332.601 58.50900000000001 C 354.94 58.50900000000001 373.114 76.683 373.114 99.022 L 373.114 139.108 z M 34.219 195.145 C 23.604 195.145 14.968 186.50900000000001 14.968 175.894 L 14.968 138.58800000000002 C 14.968 127.97300000000003 23.604 119.33700000000002 34.219 119.33700000000002 L 239.462 119.33700000000002 L 239.462 139.10700000000003 L 212.684 139.10700000000003 C 208.551 139.10700000000003 205.2 142.45800000000003 205.2 146.59100000000004 L 205.2 195.14400000000003 L 34.219 195.14400000000003 z M 398.86 300.424 C 398.86 311.039 390.224 319.67499999999995 379.60900000000004 319.67499999999995 L 34.219 319.67499999999995 C 23.604 319.67499999999995 14.968 311.03899999999993 14.968 300.424 L 14.968 263.118 C 14.968 252.503 23.604 243.867 34.219 243.867 L 205.2 243.867 L 205.2 256.051 C 205.2 276.649 221.958 293.406 242.55499999999998 293.406 L 398.86 293.406 L 398.86 300.424 z M 445.033 256.051 C 445.033 268.396 434.99 278.43899999999996 422.64500000000004 278.43899999999996 L 242.556 278.43899999999996 C 230.211 278.43899999999996 220.168 268.39599999999996 220.168 256.051 L 220.168 154.075 L 445.033 154.075 L 445.033 256.051 z" stroke-linecap="round" />
</g>
		<g transform="matrix(1 0 0 1 102.6 -13.74)" id="XMLID_1982_"  >
<path style="stroke: none; stroke-width: 1; stroke-dasharray: none; stroke-linecap: butt; stroke-dashoffset: 0; stroke-linejoin: miter; stroke-miterlimit: 4; fill: rgb(255,0,0); fill-rule: nonzero; opacity: 1;" vector-effect="non-scaling-stroke"  transform=" translate(-332.6, -216.26)" d="M 332.6 191.642 C 328.46700000000004 191.642 325.11600000000004 194.993 325.11600000000004 199.126 L 325.11600000000004 233.387 C 325.11600000000004 237.52 328.46700000000004 240.871 332.6 240.871 C 336.733 240.871 340.084 237.52 340.084 233.387 L 340.084 199.126 C 340.084 194.993 336.733 191.642 332.6 191.642 z" stroke-linecap="round" />
</g>
</g>
</g>
</svg>