<?xml version="1.0" encoding="UTF-8" standalone="no" ?>
<!DOCTYPE svg PUBLIC "-//W3C//DTD SVG 1.1//EN" "http://www.w3.org/Graphics/SVG/1.1/DTD/svg11.dtd">
<svg xmlns="http://www.w3.org/2000/svg" xmlns:xlink="http://www.w3.org/1999/xlink" version="1.1" width="1080" height="1080" viewBox="0 0 1080 1080" xml:space="preserve">
<desc>Created with Fabric.js 5.2.4</desc>
<defs>
</defs>
<rect x="0" y="0" width="100%" height="100%" fill="transparent"></rect>
<g transform="matrix(1 0 0 1 540 540)" id="0decea4f-ba8f-4f31-9acb-93fee43d8bf5"  >
<rect style="stroke: none; stroke-width: 1; stroke-dasharray: none; stroke-linecap: butt; stroke-dashoffset: 0; stroke-linejoin: miter; stroke-miterlimit: 4; fill: rgb(255,255,255); fill-rule: nonzero; opacity: 1; visibility: hidden;" vector-effect="non-scaling-stroke"  x="-540" y="-540" rx="0" ry="0" width="1080" height="1080" />
</g>
<g transform="matrix(1 0 0 1 540 540)" id="f7dd2182-cc49-4030-9151-0c32d23a77fc"  >
</g>
<g transform="matrix(13.99 0 0 13.99 540 540)"  >
<g style="" vector-effect="non-scaling-stroke"   >
		<g transform="matrix(1 0 0 1 14 23.1)"  >
<path style="stroke: none; stroke-width: 1; stroke-dasharray: none; stroke-linecap: butt; stroke-dashoffset: 0; stroke-linejoin: miter; stroke-miterlimit: 4; fill: rgb(255,0,0); fill-rule: nonzero; opacity: 1;" vector-effect="non-scaling-stroke"  transform=" translate(-43.1, -52.2)" d="M 55.8 46.22 C 55.251 46.112 54.730999999999995 46.461 54.62 47.001 C 53.504 52.503 49.175 56.199999999999996 43.849 56.199999999999996 C 38.821 56.199999999999996 34.403 52.9 32.900999999999996 48.199999999999996 L 37.6 48.199999999999996 L 37.6 46.199999999999996 L 29.6 46.199999999999996 L 29.6 54.199999999999996 L 31.6 54.199999999999996 L 31.6 50.351 C 33.769 55.032 38.515 58.2 43.849000000000004 58.2 C 50.153000000000006 58.2 55.269000000000005 53.859 56.580000000000005 47.399 C 56.69 46.858 56.341 46.331 55.8 46.22 z" stroke-linecap="round" />
</g>
		<g transform="matrix(1 0 0 1 15 7.6)"  >
<path style="stroke: none; stroke-width: 1; stroke-dasharray: none; stroke-linecap: butt; stroke-dashoffset: 0; stroke-linejoin: miter; stroke-miterlimit: 4; fill: rgb(255,0,0); fill-rule: nonzero; opacity: 1;" vector-effect="non-scaling-stroke"  transform=" translate(-44.1, -36.7)" d="M 55.6 34.201 L 55.6 38.51 C 53.35 34.056 48.896 31.200999999999997 43.849000000000004 31.200999999999997 C 37.74 31.200999999999997 32.30800000000001 35.19799999999999 30.640000000000004 40.922 C 30.486000000000004 41.452 30.790000000000003 42.007 31.321000000000005 42.160999999999994 C 31.852000000000004 42.312999999999995 32.407000000000004 42.00999999999999 32.56 41.48 C 33.958000000000006 36.683 38.706 33.20099999999999 43.849000000000004 33.20099999999999 C 48.414 33.20099999999999 52.411 35.96699999999999 54.179 40.20099999999999 L 49.6 40.20099999999999 L 49.6 42.20099999999999 L 57.6 42.20099999999999 L 57.6 34.20099999999999 L 55.6 34.20099999999999 z" stroke-linecap="round" />
</g>
		<g transform="matrix(1 0 0 1 -13.38 6.46)"  >
<path style="stroke: none; stroke-width: 1; stroke-dasharray: none; stroke-linecap: butt; stroke-dashoffset: 0; stroke-linejoin: miter; stroke-miterlimit: 4; fill: rgb(255,0,0); fill-rule: nonzero; opacity: 1;" vector-effect="non-scaling-stroke"  transform=" translate(-15.72, -35.56)" d="M 25.743 43.109 C 26.232999999999997 39.141000000000005 28.090999999999998 35.597 30.834999999999997 32.959 C 29.980999999999998 33.008 29.105999999999998 33.045 28.206999999999997 33.07 C 27.336999999999996 33.097 26.467 33.111 25.601 33.111 C 24.732 33.111 23.858999999999998 33.096999999999994 22.987 33.068999999999996 C 15.645999999999997 32.867999999999995 9.795999999999998 31.830999999999996 5.584 30.351999999999997 C 3.604 29.685 1.909 28.899 0.6 28 L 0.6 35.111 L 0.6 35.611 L 0.6 36.111 L 0.6 37.4 C 3.446 40.370999999999995 12.994 43.111 25.6 43.111 C 25.649 43.111 25.695 43.109 25.743 43.109 z" stroke-linecap="round" />
</g>
		<g transform="matrix(1 0 0 1 -3.5 -6.66)"  >
<path style="stroke: none; stroke-width: 1; stroke-dasharray: none; stroke-linecap: butt; stroke-dashoffset: 0; stroke-linejoin: miter; stroke-miterlimit: 4; fill: rgb(255,0,0); fill-rule: nonzero; opacity: 1;" vector-effect="non-scaling-stroke"  transform=" translate(-25.6, -22.44)" d="M 23.236 29.965 C 23.562 29.974 23.887 29.983 24.218 29.988 C 24.674 29.996 25.135 30 25.6 30 C 26.065 30 26.526 29.996 26.983 29.989 C 27.313 29.984 27.639 29.974 27.965 29.966 C 28.081 29.963 28.199 29.961000000000002 28.314 29.958000000000002 C 39.567 29.599000000000004 47.962 27.043000000000003 50.6 24.290000000000003 L 50.6 23 L 50.6 22.5 L 50.6 22 L 50.6 14.889 C 45.733 18.232 35.444 20 25.6 20 C 15.756 20 5.467000000000002 18.232 0.6000000000000014 14.889 L 0.6000000000000014 22 L 0.6000000000000014 22.5 L 0.6000000000000014 23 L 0.6000000000000014 24.289 C 3.2380000000000013 27.043000000000003 11.633000000000001 29.599 22.886000000000003 29.957 C 23.002 29.96 23.12 29.962 23.236 29.965 z" stroke-linecap="round" />
</g>
		<g transform="matrix(1 0 0 1 -3.5 -20.6)"  >
<path style="stroke: none; stroke-width: 1; stroke-dasharray: none; stroke-linecap: butt; stroke-dashoffset: 0; stroke-linejoin: miter; stroke-miterlimit: 4; fill: rgb(255,0,0); fill-rule: nonzero; opacity: 1;" vector-effect="non-scaling-stroke"  transform=" translate(-25.6, -8.5)" d="M 50.6 11.306 L 50.6 9.5 L 50.6 9 C 50.6 8.832 50.544000000000004 8.681 50.465 8.542 C 49.343 4.241 40.715 0 25.6 0 C 10.523 0 1.904 4.22 0.747 8.51 C 0.662 8.657 0.6 8.818 0.6 9 L 0.6 9.5 L 0.6 11.306000000000001 C 3.437 14.267 12.917 17 25.6 17 C 38.283 17 47.764 14.267 50.6 11.306 z" stroke-linecap="round" />
</g>
		<g transform="matrix(1 0 0 1 -13.11 20.5)"  >
<path style="stroke: none; stroke-width: 1; stroke-dasharray: none; stroke-linecap: butt; stroke-dashoffset: 0; stroke-linejoin: miter; stroke-miterlimit: 4; fill: rgb(255,0,0); fill-rule: nonzero; opacity: 1;" vector-effect="non-scaling-stroke"  transform=" translate(-15.99, -49.6)" d="M 25.651 46.2 C 25.634 46.2 25.618 46.2 25.6 46.2 C 13.254000000000001 46.2 4.734000000000002 43.910000000000004 0.6000000000000014 40.999 L 0.6000000000000014 49.2 C 0.6000000000000014 49.362 0.6430000000000015 49.515 0.7170000000000014 49.651 C 1.8980000000000015 54.54600000000001 12.464000000000002 58.2 25.6 58.2 C 27.6 58.2 29.53 58.106 31.387 57.945 C 28.084 55.035 25.925 50.872 25.651 46.2 z" stroke-linecap="round" />
</g>
</g>
</g>
</svg>