<?xml version="1.0" encoding="UTF-8" standalone="no"?>
<svg xmlns:dc="http://purl.org/dc/elements/1.1/" xmlns:cc="http://creativecommons.org/ns#" xmlns:rdf="http://www.w3.org/1999/02/22-rdf-syntax-ns#" xmlns:svg="http://www.w3.org/2000/svg" xmlns="http://www.w3.org/2000/svg" xmlns:sodipodi="http://sodipodi.sourceforge.net/DTD/sodipodi-0.dtd" xmlns:inkscape="http://www.inkscape.org/namespaces/inkscape" x="0px" y="0px" viewbox="0 0 235 235" id="svg58" height="100%" width="100%" sodipodi:docname="Round Landmark School Icon - Transparent.svg" inkscape:version="0.92.4 (5da689c313, 2019-01-14)">
  <metadata id="metadata42"></metadata>
  <defs id="defs62"></defs>
  <g id="School">
    <rect style="opacity:0;fill:#ffffff" width="235" height="235" id="rect2" x="0" y="0"></rect>
    <path style="fill:#a02c2c" d="m 117.5,18.502 c -54.676,0 -98.999,44.323 -98.999,98.999 0,54.675 44.323,98.999 98.999,98.999 54.675,0 98.999,-44.324 98.999,-98.999 0,-54.676 -44.324,-98.999 -98.999,-98.999 z m 0,184.477 c -47.209,0 -85.479,-38.27 -85.479,-85.478 0,-47.209 38.271,-85.479 85.479,-85.479 47.208,0 85.479,38.271 85.479,85.479 0,47.208 -38.271,85.478 -85.479,85.478 z" id="path4" inkscape:connector-curvature="0"></path>
    <path style="fill:#eda33f" d="m 197.227,117.501 c 0,44.03 -35.694,79.724 -79.726,79.724 -44.033,0 -79.728,-35.693 -79.728,-79.724 0,-44.033 35.694,-79.729 79.728,-79.729 44.031,0 79.726,35.696 79.726,79.729 z" id="path6" inkscape:connector-curvature="0"></path>
    <ellipse cx="117.5" cy="153.814" rx="65.733002" ry="6.073" id="ellipse8"></ellipse>
    <rect x="60.466" y="108.467" style="fill:#352200" width="114.066" height="2.9519999" id="rect10"></rect>
    <polygon style="fill:#d3d5d6" points="61.74,111.409 61.74,153.814 173.259,153.814 173.259,111.409 133.269,111.409 133.269,85.643 117.5,75.444 117.499,75.444 101.73,85.643 101.73,111.409" id="polygon12"></polygon>
    <rect x="110.188" y="134.222" style="fill:#352200" width="14.625" height="19.593" id="rect14"></rect>
    <circle style="fill:#352200" cx="117.5" cy="97.452003" r="10.735" id="circle16"></circle>
    <circle style="fill:#ffffff" cx="117.5" cy="97.452003" r="9.1090002" id="circle18"></circle>
    <path style="fill:#352200" d="m 116.698,90.62 v 6.555 h -6.555 v 1.92 h 7.515 v 0 c 0.529,-0.001 0.959,-0.43 0.959,-0.96 h 10e-4 V 90.62 Z" id="path20" inkscape:connector-curvature="0"></path>
    <polygon style="fill:#352200" points="134.316,82.305 117.5,72.126 100.684,82.305 100.684,87.653 117.5,77.494 134.316,87.653" id="polygon22"></polygon>
    <g id="g36">
      <rect x="65.498001" y="115.703" style="fill:#8fbdcf" width="9.6619997" height="12.749" id="rect24"></rect>
      <rect x="78.917999" y="115.703" style="fill:#8fbdcf" width="9.6619997" height="12.749" id="rect26"></rect>
      <rect x="92.336998" y="115.703" style="fill:#8fbdcf" width="9.6619997" height="12.749" id="rect28"></rect>
      <rect x="65.498001" y="135.295" style="fill:#8fbdcf" width="9.6619997" height="12.749" id="rect30"></rect>
      <rect x="78.917999" y="135.295" style="fill:#8fbdcf" width="9.6619997" height="12.749" id="rect32"></rect>
      <rect x="92.336998" y="135.295" style="fill:#8fbdcf" width="9.6619997" height="12.749" id="rect34"></rect>
    </g>
    <g id="g50">
      <rect x="130.985" y="115.703" style="fill:#8fbdcf" width="9.6619997" height="12.749" id="rect38"></rect>
      <rect x="144.405" y="115.703" style="fill:#8fbdcf" width="9.6619997" height="12.749" id="rect40"></rect>
      <rect x="157.825" y="115.703" style="fill:#8fbdcf" width="9.6619997" height="12.749" id="rect42"></rect>
      <rect x="130.985" y="135.295" style="fill:#8fbdcf" width="9.6619997" height="12.749" id="rect44"></rect>
      <rect x="144.405" y="135.295" style="fill:#8fbdcf" width="9.6619997" height="12.749" id="rect46"></rect>
      <rect x="157.825" y="135.295" style="fill:#8fbdcf" width="9.6619997" height="12.749" id="rect48"></rect>
    </g>
    <path style="fill:#58595b" d="m 85.071,69.224 c -0.73,0 -1.322,0.373 -1.322,0.833 v 86.333 c 0,0.46 0.592,0.833 1.322,0.833 0.731,0 1.323,-0.373 1.323,-0.833 V 70.057 c 10e-4,-0.46 -0.591,-0.833 -1.323,-0.833 z" id="path52" inkscape:connector-curvature="0"></path>
    <path style="fill:#ed2224" d="m 83.749,70.64 c -2.854,0 -4.058,2.25 -5.831,2.833 -1.773,0.583 -4.774,0.917 -6.94,0.833 v 10 c 3.167,-0.083 5.584,-0.25 7.584,-1.667 2,-1.417 3.209,-1.75 5.188,-1.75 V 70.64 Z" id="path54" inkscape:connector-curvature="0"></path>
  </g>
  <g id="Layer_1"></g>
</svg>
